<svg xmlns="http://www.w3.org/2000/svg" xmlns:xlink="http://www.w3.org/1999/xlink" width="20" height="20" viewBox="0 0 20 20">
    <defs>
        <path id="a" d="M16.082 5.82L11.7 1.44a.57.57 0 0 0-.438-.188h-6.26c-.691 0-1.252.56-1.252 1.251v15.018c0 .69.56 1.251 1.252 1.251h10.016c.691 0 1.252-.56 1.252-1.251V6.258a.57.57 0 0 0-.188-.438zm-4.82-3.066l3.505 3.504h-3.505V2.754zm3.756 14.767H5.002V2.503h5.008v3.755c0 .69.56 1.251 1.252 1.251h3.756v10.012zm-1.878-5.632h-2.504V9.386H9.384v2.503H6.88v1.252h2.504v2.502h1.252v-2.502h2.504v-1.252z"/>
    </defs>
    <use fill="#000" fill-rule="evenodd" xlink:href="#a"/>
</svg>
