<svg xmlns="http://www.w3.org/2000/svg" xmlns:xlink="http://www.w3.org/1999/xlink" width="20" height="20" viewBox="0 0 20 20">
    <defs>
        <path id="a" d="M16.083 5.82l-4.38-4.38a.57.57 0 0 0-.439-.188H5.006c-.69 0-1.251.56-1.251 1.251v15.02c0 .69.56 1.25 1.251 1.25H15.02c.691 0 1.252-.56 1.252-1.25V6.257a.57.57 0 0 0-.188-.438zm-4.819-3.067l3.505 3.505h-3.505V2.753zm3.755 14.77H5.006V2.502h5.007v3.755c0 .691.56 1.251 1.251 1.251h3.755v10.013zm-8.135-3.756h6.258v1.252H6.884v-1.252zm0-3.754h6.258v1.251H6.884v-1.251z"/>
    </defs>
    <use fill="#000" fill-rule="evenodd" xlink:href="#a"/>
</svg>
