<svg xmlns="http://www.w3.org/2000/svg" xmlns:xlink="http://www.w3.org/1999/xlink" width="20" height="20" viewBox="0 0 20 20">
    <defs>
        <path id="a" d="M10 2.5a3.125 3.125 0 1 1 0 6.25 3.125 3.125 0 0 1 0-6.25zm0-1.25A4.375 4.375 0 1 0 10 10a4.375 4.375 0 0 0 0-8.75zm6.25 17.5H15v-3.125a3.129 3.129 0 0 0-3.125-3.125h-3.75A3.129 3.129 0 0 0 5 15.625v3.125H3.75v-3.125a4.38 4.38 0 0 1 4.375-4.375h3.75a4.38 4.38 0 0 1 4.375 4.375v3.125z"/>
    </defs>
    <use fill="#000" fill-rule="evenodd" xlink:href="#a"/>
</svg>
