<svg xmlns="http://www.w3.org/2000/svg" xmlns:xlink="http://www.w3.org/1999/xlink" width="20" height="20" viewBox="0 0 20 20">
    <defs>
        <path id="a" d="M15 7.5a1.875 1.875 0 1 1 0 3.75 1.875 1.875 0 0 1 0-3.75zm0-1.25a3.125 3.125 0 1 0 0 6.25 3.125 3.125 0 0 0 0-6.25zm4.375 12.5h-1.25v-1.875c0-1.036-.84-1.875-1.875-1.875h-2.5c-1.036 0-1.875.84-1.875 1.875v1.875h-1.25v-1.875c0-1.726 1.4-3.125 3.125-3.125h2.5c1.726 0 3.125 1.4 3.125 3.125v1.875zM5 2.5a1.875 1.875 0 1 1 0 3.75A1.875 1.875 0 0 1 5 2.5zm0-1.25A3.125 3.125 0 1 0 5 7.5a3.125 3.125 0 0 0 0-6.25zm4.375 12.5h-1.25v-1.875c0-1.036-.84-1.875-1.875-1.875h-2.5c-1.036 0-1.875.84-1.875 1.875v1.875H.625v-1.875c0-1.726 1.4-3.125 3.125-3.125h2.5c1.726 0 3.125 1.4 3.125 3.125v1.875z"/>
    </defs>
    <use fill="#000" fill-rule="evenodd" xlink:href="#a"/>
</svg>
